<svg width="2285" height="1024" viewBox="0 0 2285 1024" fill="none" xmlns="http://www.w3.org/2000/svg">
<path d="M71.028 797.865C68.7768 806.461 64.3237 816.229 61.1322 819.572C55.6293 825.337 58.3931 825.65 114.663 825.65H173.996V217.853H59.9524L66.4739 229.141C72.5362 239.633 73.07 259.509 74.0583 511.332C74.8062 701.976 73.9085 786.866 71.028 797.865Z" fill="#B00020"/>
<path d="M239.096 474.864L239.092 84.1371L207.874 82V939.843L235.42 942L237.259 903.796C238.271 882.783 239.098 689.764 239.096 474.864Z" fill="#B00020"/>
<path d="M525.864 817.466C532.268 823.65 539.099 824.628 588.06 826.375C618.311 827.454 651 827.65 660.702 826.809C670.405 825.968 678.944 824.693 679.679 823.978C680.414 823.262 678.249 822.655 674.868 822.642C671.487 822.623 660.977 818.704 651.511 813.933C642.046 809.161 629.056 800.757 622.645 795.256C616.234 789.755 600.163 770.024 586.933 751.41C573.702 732.796 557.009 709.568 549.835 699.79C542.661 690.013 520.651 658.945 500.923 630.749C481.195 602.553 465.055 578.263 465.055 576.772C465.055 575.28 475.519 571.426 488.308 568.207C501.098 564.988 522.108 556.587 534.999 549.539C548.596 542.105 565.53 529.042 575.333 518.428C584.626 508.364 596.673 491.041 602.105 479.932C607.536 468.823 614.283 451.245 617.097 440.87C619.928 430.432 622.214 409.426 622.214 393.844C622.214 378.355 620.061 356.732 617.43 345.792C614.798 334.853 608.974 318.058 604.488 308.47C600.001 298.882 590.968 284.588 584.415 276.705C577.862 268.821 565.036 257.185 555.912 250.847C546.788 244.509 528.024 235.021 514.216 229.763L489.111 220.203L275.821 217.853V252.243L345.581 254.066C393.832 255.327 421.553 257.594 435.488 261.418C446.569 264.458 461.506 270.19 468.682 274.154C475.859 278.118 487.819 287.439 495.26 294.867C502.702 302.295 512.732 317.092 517.551 327.75C522.95 339.69 527.653 358.077 529.801 375.647C532.7 399.362 532.393 408.809 527.98 431.749C525.061 446.92 519.184 465.781 514.919 473.661C510.654 481.541 501.43 494.2 494.42 501.792C487.409 509.383 474.579 519.776 465.908 524.886C457.237 529.997 441.59 536.751 431.138 539.897C417.42 544.026 393.178 546.107 343.977 547.383L275.821 549.15V583.03H357.954L367.683 594.318C373.033 600.526 409.194 651.711 448.04 708.063C486.887 764.414 521.907 813.646 525.864 817.466Z" fill="#B00020"/>
<path d="M830.068 512.074V391.131H847.346V512.074H830.068ZM918.109 512.074V391.131H932.277L1012.27 490.477H1004.84V391.131H1022.12V512.074H1007.95L927.958 412.728H935.387V512.074H918.109ZM1126.6 512.074L1073.38 391.131H1092.04L1140.94 502.744H1130.22L1179.47 391.131H1196.74L1143.7 512.074H1126.6ZM1224.53 512.074L1279.3 391.131H1296.4L1351.34 512.074H1333.2L1284.31 400.807H1291.22L1242.32 512.074H1224.53ZM1247.85 481.839L1252.52 468.017H1320.59L1325.6 481.839H1247.85ZM1403.94 512.074V391.131H1451.11C1461.7 391.131 1470.75 392.801 1478.23 396.142C1485.72 399.482 1491.48 404.32 1495.51 410.655C1499.54 416.99 1501.56 424.535 1501.56 433.289C1501.56 442.043 1499.54 449.587 1495.51 455.922C1491.48 462.142 1485.72 466.922 1478.23 470.263C1470.75 473.603 1461.7 475.273 1451.11 475.273H1413.44L1421.22 467.325V512.074H1403.94ZM1484.8 512.074L1454.04 468.189H1472.53L1503.63 512.074H1484.8ZM1421.22 469.053L1413.44 460.587H1450.59C1461.65 460.587 1470 458.226 1475.64 453.503C1481.4 448.666 1484.28 441.927 1484.28 433.289C1484.28 424.65 1481.4 417.969 1475.64 413.247C1470 408.524 1461.65 406.163 1450.59 406.163H1413.44L1421.22 397.524V469.053ZM1564.03 512.074V391.131H1581.3V512.074H1564.03ZM1633.75 512.074L1688.52 391.131H1705.63L1760.57 512.074H1742.43L1693.53 400.807H1700.45L1651.55 512.074H1633.75ZM1657.08 481.839L1661.74 468.017H1729.82L1734.83 481.839H1657.08ZM1813.17 512.074V391.131H1827.34L1907.33 490.477H1899.9V391.131H1917.18V512.074H1903.01L1823.02 412.728H1830.45V512.074H1813.17ZM2042.01 513.457C2032.8 513.457 2024.28 511.959 2016.44 508.964C2008.73 505.854 2001.99 501.535 1996.23 496.006C1990.58 490.362 1986.15 483.797 1982.92 476.31C1979.7 468.823 1978.09 460.587 1978.09 451.603C1978.09 442.618 1979.7 434.383 1982.92 426.896C1986.15 419.409 1990.64 412.901 1996.4 407.372C2002.16 401.728 2008.9 397.409 2016.62 394.414C2024.45 391.304 2032.97 389.749 2042.19 389.749C2051.52 389.749 2060.1 391.362 2067.93 394.587C2075.88 397.697 2082.62 402.362 2088.15 408.582L2076.91 419.467C2072.31 414.629 2067.12 411.058 2061.36 408.754C2055.61 406.336 2049.44 405.126 2042.88 405.126C2036.08 405.126 2029.75 406.278 2023.87 408.582C2018.11 410.885 2013.1 414.11 2008.84 418.257C2004.58 422.404 2001.24 427.357 1998.82 433.116C1996.52 438.76 1995.36 444.922 1995.36 451.603C1995.36 458.283 1996.52 464.503 1998.82 470.263C2001.24 475.907 2004.58 480.802 2008.84 484.949C2013.1 489.095 2018.11 492.32 2023.87 494.624C2029.75 496.928 2036.08 498.079 2042.88 498.079C2049.44 498.079 2055.61 496.928 2061.36 494.624C2067.12 492.205 2072.31 488.519 2076.91 483.566L2088.15 494.451C2082.62 500.671 2075.88 505.394 2067.93 508.619C2060.1 511.844 2051.46 513.457 2042.01 513.457ZM2163.07 443.31H2225.27V457.996H2163.07V443.31ZM2164.63 497.043H2235.12V512.074H2147.35V391.131H2232.7V406.163H2164.63V497.043ZM827.684 685.074V588.32H863.898C872.099 588.32 879.148 589.656 885.045 592.328C890.943 594.908 895.458 598.686 898.591 603.662C901.816 608.546 903.429 614.49 903.429 621.493C903.429 628.312 901.816 634.209 898.591 639.185C895.458 644.069 890.943 647.847 885.045 650.519C879.148 653.099 872.099 654.389 863.898 654.389H833.351L837.912 649.69V685.074H827.684ZM893.753 685.074L868.874 649.966H879.931L904.949 685.074H893.753ZM837.912 650.519L833.351 645.681H863.621C873.297 645.681 880.622 643.562 885.598 639.323C890.666 635.085 893.2 629.141 893.2 621.493C893.2 613.753 890.666 607.763 885.598 603.524C880.622 599.285 873.297 597.166 863.621 597.166H833.351L837.912 592.328V650.519ZM964.336 631.583H1015.48V640.291H964.336V631.583ZM965.442 676.228H1023.63V685.074H955.214V588.32H1021.56V597.166H965.442V676.228ZM1102 685.904C1094.81 685.904 1087.9 684.752 1081.26 682.448C1074.72 680.052 1069.65 677.011 1066.06 673.326L1070.07 665.447C1073.48 668.764 1078.04 671.575 1083.75 673.878C1089.56 676.09 1095.64 677.196 1102 677.196C1108.08 677.196 1113.01 676.459 1116.79 674.984C1120.66 673.418 1123.47 671.344 1125.22 668.764C1127.06 666.184 1127.98 663.328 1127.98 660.195C1127.98 656.417 1126.88 653.376 1124.66 651.072C1122.55 648.768 1119.73 646.972 1116.23 645.681C1112.73 644.299 1108.86 643.101 1104.62 642.088C1100.38 641.074 1096.15 640.014 1091.91 638.909C1087.67 637.711 1083.75 636.144 1080.16 634.209C1076.66 632.274 1073.8 629.74 1071.59 626.607C1069.47 623.382 1068.41 619.189 1068.41 614.029C1068.41 609.237 1069.65 604.86 1072.14 600.898C1074.72 596.844 1078.64 593.618 1083.89 591.223C1089.14 588.735 1095.87 587.491 1104.07 587.491C1109.51 587.491 1114.9 588.274 1120.24 589.84C1125.59 591.315 1130.19 593.388 1134.06 596.06L1130.61 604.215C1126.46 601.451 1122.04 599.424 1117.34 598.134C1112.73 596.844 1108.26 596.198 1103.93 596.198C1098.13 596.198 1093.33 596.982 1089.56 598.548C1085.78 600.115 1082.97 602.234 1081.13 604.906C1079.37 607.487 1078.5 610.435 1078.5 613.753C1078.5 617.531 1079.56 620.571 1081.68 622.875C1083.89 625.179 1086.75 626.976 1090.25 628.266C1093.84 629.556 1097.76 630.708 1102 631.721C1106.24 632.735 1110.43 633.841 1114.57 635.038C1118.81 636.236 1122.68 637.803 1126.19 639.738C1129.78 641.581 1132.64 644.069 1134.75 647.202C1136.97 650.335 1138.07 654.435 1138.07 659.504C1138.07 664.203 1136.78 668.58 1134.2 672.634C1131.62 676.597 1127.66 679.822 1122.31 682.31C1117.06 684.706 1110.29 685.904 1102 685.904ZM1197.12 631.583H1248.27V640.291H1197.12V631.583ZM1198.23 676.228H1256.42V685.074H1188V588.32H1254.35V597.166H1198.23V676.228ZM1292.63 685.074L1336.86 588.32H1346.95L1391.18 685.074H1380.4L1339.76 594.263H1343.91L1303.27 685.074H1292.63ZM1310.04 659.227L1313.08 650.934H1369.34L1372.38 659.227H1310.04ZM1434.83 685.074V588.32H1471.04C1479.24 588.32 1486.29 589.656 1492.19 592.328C1498.09 594.908 1502.6 598.686 1505.74 603.662C1508.96 608.546 1510.57 614.49 1510.57 621.493C1510.57 628.312 1508.96 634.209 1505.74 639.185C1502.6 644.069 1498.09 647.847 1492.19 650.519C1486.29 653.099 1479.24 654.389 1471.04 654.389H1440.5L1445.06 649.69V685.074H1434.83ZM1500.9 685.074L1476.02 649.966H1487.08L1512.09 685.074H1500.9ZM1445.06 650.519L1440.5 645.681H1470.77C1480.44 645.681 1487.77 643.562 1492.74 639.323C1497.81 635.085 1500.34 629.141 1500.34 621.493C1500.34 613.753 1497.81 607.763 1492.74 603.524C1487.77 599.285 1480.44 597.166 1470.77 597.166H1440.5L1445.06 592.328V650.519ZM1604.38 685.904C1597.1 685.904 1590.37 684.706 1584.2 682.31C1578.02 679.822 1572.68 676.366 1568.16 671.943C1563.65 667.52 1560.1 662.314 1557.52 656.324C1555.03 650.335 1553.79 643.792 1553.79 636.697C1553.79 629.602 1555.03 623.059 1557.52 617.07C1560.1 611.08 1563.65 605.874 1568.16 601.451C1572.77 597.028 1578.16 593.618 1584.34 591.223C1590.51 588.735 1597.24 587.491 1604.52 587.491C1611.52 587.491 1618.11 588.689 1624.28 591.084C1630.46 593.388 1635.66 596.89 1639.9 601.589L1633.4 608.085C1629.44 604.031 1625.06 601.128 1620.27 599.378C1615.48 597.535 1610.32 596.613 1604.79 596.613C1598.99 596.613 1593.6 597.627 1588.62 599.654C1583.64 601.589 1579.31 604.4 1575.63 608.085C1571.94 611.679 1569.04 615.918 1566.92 620.802C1564.89 625.593 1563.88 630.892 1563.88 636.697C1563.88 642.502 1564.89 647.847 1566.92 652.731C1569.04 657.522 1571.94 661.761 1575.63 665.447C1579.31 669.041 1583.64 671.851 1588.62 673.878C1593.6 675.814 1598.99 676.781 1604.79 676.781C1610.32 676.781 1615.48 675.86 1620.27 674.017C1625.06 672.174 1629.44 669.225 1633.4 665.171L1639.9 671.667C1635.66 676.366 1630.46 679.914 1624.28 682.31C1618.11 684.706 1611.47 685.904 1604.38 685.904ZM1760.12 588.32H1770.21V685.074H1760.12V588.32ZM1699.58 685.074H1689.35V588.32H1699.58V685.074ZM1761.08 640.429H1698.47V631.445H1761.08V640.429Z" fill="white"/>
</svg>
