<svg width="3335" height="1025" viewBox="0 0 3335 1025" fill="none" xmlns="http://www.w3.org/2000/svg">
<path d="M71.0307 797.894C68.7793 806.49 64.326 816.259 61.1345 819.602C55.6314 825.366 58.3953 825.68 114.667 825.68H174.002V217.861H59.9547L66.4763 229.149C72.5389 239.642 73.0727 259.519 74.0611 511.351C74.809 702.001 73.9113 786.895 71.0307 797.894Z" fill="#B00020"/>
<path d="M239.105 474.881L239.101 84.1401L207.882 82.003V939.877L235.429 942.034L237.268 903.828C238.28 882.815 239.106 689.789 239.105 474.881Z" fill="#B00020"/>
<path d="M525.883 817.496C532.288 823.679 539.119 824.658 588.082 826.405C618.334 827.484 651.024 827.68 660.726 826.838C670.429 825.997 678.969 824.723 679.704 824.008C680.439 823.291 678.274 822.685 674.893 822.671C671.511 822.653 661.001 818.733 651.535 813.962C642.069 809.19 629.079 800.786 622.668 795.284C616.256 789.783 600.185 770.052 586.954 751.437C573.723 732.823 557.029 709.593 549.855 699.816C542.68 690.038 520.669 658.969 500.941 630.772C481.213 602.575 465.072 578.284 465.072 576.792C465.072 575.3 475.536 571.446 488.326 568.227C501.116 565.008 522.127 556.607 535.018 549.559C548.616 542.125 565.551 529.062 575.354 518.446C584.648 508.383 596.695 491.059 602.127 479.95C607.558 468.84 614.305 451.261 617.12 440.886C619.951 430.447 622.237 409.441 622.237 393.858C622.237 378.368 620.084 356.745 617.452 345.805C614.821 334.865 608.997 318.069 604.51 308.481C600.023 298.893 590.99 284.598 584.436 276.715C577.883 268.831 565.056 257.194 555.932 250.856C546.808 244.518 528.044 235.029 514.234 229.771L489.128 220.211L275.831 217.861V252.252L345.594 254.075C393.846 255.337 421.569 257.603 435.504 261.427C446.585 264.468 461.523 270.199 468.7 274.164C475.876 278.128 487.836 287.449 495.278 294.877C502.72 302.305 512.75 317.104 517.57 327.762C522.969 339.702 527.672 358.089 529.82 375.66C532.719 399.376 532.412 408.824 527.999 431.764C525.08 446.936 519.202 465.797 514.937 473.678C510.672 481.559 501.448 494.218 494.438 501.81C487.427 509.402 474.596 519.794 465.925 524.905C457.253 530.016 441.606 536.771 431.154 539.916C417.435 544.045 393.192 546.127 343.99 547.403L275.831 549.17V583.051H357.967L367.696 594.339C373.047 600.548 409.209 651.735 448.057 708.088C486.905 764.442 521.926 813.675 525.883 817.496Z" fill="#B00020"/>
<path d="M1009.42 518V333.627H1035.75V518H1009.42ZM1143.63 518V333.627H1165.23L1287.18 485.076H1275.85V333.627H1302.19V518H1280.59L1158.64 366.55H1169.97V518H1143.63ZM1461.46 518L1380.34 333.627H1408.78L1483.32 503.777H1466.99L1542.06 333.627H1568.4L1487.54 518H1461.46ZM1610.75 518L1694.25 333.627H1720.32L1804.08 518H1776.43L1701.89 348.376H1712.42L1637.88 518H1610.75ZM1646.31 471.907L1653.42 450.835H1757.2L1764.84 471.907H1646.31ZM1884.26 518V333.627H1956.17C1972.32 333.627 1986.11 336.173 1997.52 341.265C2008.94 346.357 2017.71 353.732 2023.86 363.39C2030.01 373.047 2033.08 384.549 2033.08 397.894C2033.08 411.239 2030.01 422.74 2023.86 432.398C2017.71 441.88 2008.94 449.167 1997.52 454.259C1986.11 459.352 1972.32 461.898 1956.17 461.898H1898.75L1910.6 449.782V518H1884.26ZM2007.53 518L1960.65 451.099H1988.83L2036.24 518H2007.53ZM1910.6 452.416L1898.75 439.51H1955.38C1972.24 439.51 1984.97 435.91 1993.57 428.711C2002.35 421.336 2006.74 411.063 2006.74 397.894C2006.74 384.724 2002.35 374.54 1993.57 367.341C1984.97 360.141 1972.24 356.542 1955.38 356.542H1898.75L1910.6 343.372V452.416ZM2128.31 518V333.627H2154.65V518H2128.31ZM2234.61 518L2318.1 333.627H2344.18L2427.94 518H2400.28L2325.74 348.376H2336.28L2261.74 518H2234.61ZM2270.17 471.907L2277.28 450.835H2381.05L2388.69 471.907H2270.17ZM2508.12 518V333.627H2529.72L2651.67 485.076H2640.34V333.627H2666.68V518H2645.08L2523.13 366.55H2534.46V518H2508.12ZM2856.99 520.107C2842.94 520.107 2829.94 517.824 2818 513.259C2806.24 508.518 2795.97 501.933 2787.19 493.505C2778.58 484.901 2771.82 474.892 2766.91 463.478C2761.99 452.065 2759.53 439.51 2759.53 425.813C2759.53 412.117 2761.99 399.562 2766.91 388.148C2771.82 376.735 2778.67 366.814 2787.45 358.385C2796.23 349.781 2806.5 343.196 2818.27 338.631C2830.21 333.89 2843.2 331.519 2857.25 331.519C2871.47 331.519 2884.55 333.978 2896.49 338.894C2908.61 343.635 2918.88 350.747 2927.31 360.229L2910.19 376.823C2903.17 369.448 2895.27 364.004 2886.49 360.492C2877.71 356.805 2868.31 354.961 2858.3 354.961C2847.94 354.961 2838.29 356.717 2829.33 360.229C2820.55 363.741 2812.91 368.657 2806.41 374.979C2799.92 381.3 2794.83 388.851 2791.14 397.63C2787.63 406.235 2785.87 415.629 2785.87 425.813C2785.87 435.998 2787.63 445.48 2791.14 454.259C2794.83 462.864 2799.92 470.326 2806.41 476.648C2812.91 482.969 2820.55 487.886 2829.33 491.398C2838.29 494.909 2847.94 496.665 2858.3 496.665C2868.31 496.665 2877.71 494.909 2886.49 491.398C2895.27 487.71 2903.17 482.091 2910.19 474.541L2927.31 491.134C2918.88 500.616 2908.61 507.816 2896.49 512.732C2884.55 517.649 2871.38 520.107 2856.99 520.107ZM3041.53 413.171H3136.35V435.559H3041.53V413.171ZM3043.9 495.085H3151.37V518H3017.56V333.627H3147.68V356.542H3043.9V495.085ZM1005.78 781V633.501H1060.99C1073.49 633.501 1084.24 635.538 1093.23 639.612C1102.22 643.545 1109.1 649.305 1113.88 656.89C1118.79 664.335 1121.25 673.396 1121.25 684.072C1121.25 694.467 1118.79 703.458 1113.88 711.043C1109.1 718.489 1102.22 724.248 1093.23 728.322C1084.24 732.255 1073.49 734.222 1060.99 734.222H1014.42L1021.37 727.058V781H1005.78ZM1106.5 781L1068.57 727.479H1085.43L1123.57 781H1106.5ZM1021.37 728.322L1014.42 720.947H1060.57C1075.32 720.947 1086.48 717.716 1094.07 711.254C1101.8 704.792 1105.66 695.732 1105.66 684.072C1105.66 672.272 1101.8 663.141 1094.07 656.68C1086.48 650.218 1075.32 646.987 1060.57 646.987H1014.42L1021.37 639.612V728.322ZM1214.1 699.454H1292.07V712.729H1214.1V699.454ZM1215.79 767.514H1304.5V781H1200.2V633.501H1301.34V646.987H1215.79V767.514ZM1423.96 782.264C1413 782.264 1402.47 780.508 1392.35 776.996C1382.38 773.344 1374.65 768.708 1369.18 763.089L1375.29 751.079C1380.48 756.136 1387.44 760.42 1396.15 763.932C1405 767.304 1414.27 768.989 1423.96 768.989C1433.23 768.989 1440.75 767.866 1446.51 765.618C1452.41 763.23 1456.69 760.069 1459.36 756.136C1462.17 752.203 1463.58 747.848 1463.58 743.072C1463.58 737.312 1461.89 732.677 1458.52 729.165C1455.29 725.653 1451 722.914 1445.66 720.947C1440.33 718.84 1434.43 717.014 1427.96 715.468C1421.5 713.923 1415.04 712.308 1408.58 710.622C1402.12 708.796 1396.15 706.408 1390.67 703.458C1385.33 700.508 1380.98 696.645 1377.6 691.869C1374.37 686.952 1372.76 680.56 1372.76 672.694C1372.76 665.389 1374.65 658.716 1378.45 652.676C1382.38 646.495 1388.35 641.579 1396.36 637.926C1404.37 634.133 1414.62 632.237 1427.12 632.237C1435.41 632.237 1443.63 633.431 1451.78 635.819C1459.92 638.067 1466.95 641.227 1472.85 645.301L1467.58 657.733C1461.26 653.519 1454.51 650.428 1447.35 648.462C1440.33 646.495 1433.51 645.512 1426.91 645.512C1418.06 645.512 1410.76 646.706 1405 649.094C1399.24 651.482 1394.95 654.713 1392.14 658.787C1389.47 662.72 1388.14 667.215 1388.14 672.272C1388.14 678.032 1389.76 682.667 1392.99 686.179C1396.36 689.691 1400.71 692.43 1406.05 694.397C1411.53 696.364 1417.5 698.12 1423.96 699.665C1430.42 701.21 1436.81 702.896 1443.14 704.722C1449.6 706.548 1455.5 708.936 1460.84 711.886C1466.31 714.696 1470.67 718.489 1473.9 723.265C1477.27 728.041 1478.96 734.292 1478.96 742.018C1478.96 749.182 1476.99 755.855 1473.06 762.036C1469.12 768.076 1463.08 772.993 1454.94 776.786C1446.93 780.438 1436.6 782.264 1423.96 782.264ZM1568.98 699.454H1646.94V712.729H1568.98V699.454ZM1570.67 767.514H1659.38V781H1555.07V633.501H1656.22V646.987H1570.67V767.514ZM1714.57 781L1782 633.501H1797.38L1864.81 781H1848.37L1786.42 642.562H1792.75L1730.8 781H1714.57ZM1741.12 741.597L1745.76 728.954H1831.52L1836.15 741.597H1741.12ZM1931.35 781V633.501H1986.56C1999.06 633.501 2009.81 635.538 2018.8 639.612C2027.79 643.545 2034.67 649.305 2039.45 656.89C2044.36 664.335 2046.82 673.396 2046.82 684.072C2046.82 694.467 2044.36 703.458 2039.45 711.043C2034.67 718.489 2027.79 724.248 2018.8 728.322C2009.81 732.255 1999.06 734.222 1986.56 734.222H1939.99L1946.95 727.058V781H1931.35ZM2032.07 781L1994.14 727.479H2011L2049.14 781H2032.07ZM1946.95 728.322L1939.99 720.947H1986.14C2000.89 720.947 2012.06 717.716 2019.64 711.254C2027.37 704.792 2031.23 695.732 2031.23 684.072C2031.23 672.272 2027.37 663.141 2019.64 656.68C2012.06 650.218 2000.89 646.987 1986.14 646.987H1939.99L1946.95 639.612V728.322ZM2189.82 782.264C2178.73 782.264 2168.47 780.438 2159.06 776.786C2149.65 772.993 2141.5 767.725 2134.62 760.982C2127.73 754.24 2122.33 746.303 2118.39 737.172C2114.6 728.041 2112.7 718.067 2112.7 707.251C2112.7 696.434 2114.6 686.46 2118.39 677.329C2122.33 668.199 2127.73 660.262 2134.62 653.519C2141.64 646.776 2149.86 641.579 2159.27 637.926C2168.68 634.133 2178.94 632.237 2190.03 632.237C2200.71 632.237 2210.75 634.063 2220.17 637.715C2229.58 641.227 2237.52 646.565 2243.98 653.73L2234.07 663.633C2228.03 657.452 2221.36 653.027 2214.06 650.358C2206.75 647.549 2198.88 646.144 2190.46 646.144C2181.61 646.144 2173.39 647.689 2165.8 650.78C2158.22 653.73 2151.61 658.014 2146 663.633C2140.38 669.112 2135.95 675.573 2132.72 683.019C2129.63 690.323 2128.09 698.401 2128.09 707.251C2128.09 716.101 2129.63 724.248 2132.72 731.693C2135.95 738.998 2140.38 745.46 2146 751.079C2151.61 756.557 2158.22 760.842 2165.8 763.932C2173.39 766.882 2181.61 768.357 2190.46 768.357C2198.88 768.357 2206.75 766.952 2214.06 764.143C2221.36 761.333 2228.03 756.838 2234.07 750.657L2243.98 760.561C2237.52 767.725 2229.58 773.133 2220.17 776.786C2210.75 780.438 2200.64 782.264 2189.82 782.264ZM2427.24 633.501H2442.63V781H2427.24V633.501ZM2334.95 781H2319.36V633.501H2334.95V781ZM2428.72 712.94H2333.27V699.244H2428.72V712.94Z" fill="white"/>
</svg>
