<svg width="2836" height="1025" viewBox="0 0 2836 1025" fill="none" xmlns="http://www.w3.org/2000/svg">
<path d="M71.0307 797.894C68.7793 806.49 64.326 816.259 61.1345 819.602C55.6314 825.366 58.3953 825.68 114.667 825.68H174.002V217.861H59.9547L66.4763 229.149C72.5389 239.642 73.0727 259.519 74.0611 511.351C74.809 702.001 73.9113 786.895 71.0307 797.894Z" fill="#B00020"/>
<path d="M239.105 474.881L239.101 84.1401L207.882 82.003V939.877L235.429 942.034L237.268 903.828C238.28 882.815 239.106 689.789 239.105 474.881Z" fill="#B00020"/>
<path d="M525.883 817.496C532.288 823.679 539.119 824.658 588.082 826.405C618.334 827.484 651.024 827.68 660.726 826.838C670.429 825.997 678.969 824.723 679.704 824.008C680.439 823.291 678.274 822.685 674.893 822.671C671.511 822.653 661.001 818.733 651.535 813.962C642.069 809.19 629.079 800.786 622.668 795.284C616.256 789.783 600.185 770.052 586.954 751.437C573.723 732.823 557.029 709.593 549.855 699.816C542.68 690.038 520.669 658.969 500.941 630.772C481.213 602.575 465.072 578.284 465.072 576.792C465.072 575.3 475.536 571.446 488.326 568.227C501.116 565.008 522.127 556.607 535.018 549.559C548.616 542.125 565.551 529.062 575.354 518.446C584.648 508.383 596.695 491.059 602.127 479.95C607.558 468.84 614.305 451.261 617.12 440.886C619.951 430.447 622.237 409.441 622.237 393.858C622.237 378.368 620.084 356.745 617.452 345.805C614.821 334.865 608.997 318.069 604.51 308.481C600.023 298.893 590.99 284.598 584.436 276.715C577.883 268.831 565.056 257.194 555.932 250.856C546.808 244.518 528.044 235.029 514.234 229.771L489.128 220.211L275.831 217.861V252.252L345.594 254.075C393.846 255.337 421.569 257.603 435.504 261.427C446.585 264.468 461.523 270.199 468.7 274.164C475.876 278.128 487.836 287.449 495.278 294.877C502.72 302.305 512.75 317.104 517.57 327.762C522.969 339.702 527.672 358.089 529.82 375.66C532.719 399.376 532.412 408.824 527.999 431.764C525.08 446.936 519.202 465.797 514.937 473.678C510.672 481.559 501.448 494.218 494.438 501.81C487.427 509.402 474.596 519.794 465.925 524.905C457.253 530.016 441.606 536.771 431.154 539.916C417.435 544.045 393.192 546.127 343.99 547.403L275.831 549.17V583.051H357.967L367.696 594.339C373.047 600.548 409.209 651.735 448.057 708.088C486.905 764.442 521.926 813.675 525.883 817.496Z" fill="#B00020"/>
<path d="M860.654 511.01V346.852H884.105V511.01H860.654ZM980.154 511.01V346.852H999.384L1107.96 481.696H1097.88V346.852H1121.33V511.01H1102.1L993.521 376.166H1003.61V511.01H980.154ZM1263.14 511.01L1190.91 346.852H1216.23L1282.6 498.346H1268.06L1334.9 346.852H1358.35L1286.35 511.01H1263.14ZM1396.06 511.01L1470.4 346.852H1493.62L1568.19 511.01H1543.57L1477.2 359.984H1486.58L1420.21 511.01H1396.06ZM1427.72 469.97L1434.05 451.21H1526.45L1533.25 469.97H1427.72ZM1639.58 511.01V346.852H1703.6C1717.99 346.852 1730.26 349.119 1740.42 353.653C1750.58 358.186 1758.4 364.753 1763.87 373.352C1769.34 381.95 1772.08 392.191 1772.08 404.073C1772.08 415.955 1769.34 426.195 1763.87 434.794C1758.4 443.236 1750.58 449.724 1740.42 454.258C1730.26 458.792 1717.99 461.059 1703.6 461.059H1652.48L1663.03 450.271V511.01H1639.58ZM1749.33 511.01L1707.59 451.444H1732.68L1774.89 511.01H1749.33ZM1663.03 452.617L1652.48 441.126H1702.9C1717.91 441.126 1729.24 437.921 1736.9 431.511C1744.72 424.944 1748.63 415.798 1748.63 404.073C1748.63 392.347 1744.72 383.279 1736.9 376.869C1729.24 370.459 1717.91 367.254 1702.9 367.254H1652.48L1663.03 355.529V452.617ZM1856.87 511.01V346.852H1880.32V511.01H1856.87ZM1951.51 511.01L2025.85 346.852H2049.07L2123.65 511.01H2099.02L2032.65 359.984H2042.04L1975.67 511.01H1951.51ZM1983.17 469.97L1989.5 451.21H2081.9L2088.7 469.97H1983.17ZM2195.04 511.01V346.852H2214.27L2322.84 481.696H2312.76V346.852H2336.21V511.01H2316.98L2208.4 376.166H2218.49V511.01H2195.04ZM2505.65 512.886C2493.15 512.886 2481.58 510.854 2470.94 506.789C2460.47 502.568 2451.32 496.705 2443.51 489.2C2435.85 481.54 2429.83 472.628 2425.45 462.466C2421.07 452.304 2418.88 441.126 2418.88 428.931C2418.88 416.736 2421.07 405.558 2425.45 395.396C2429.83 385.233 2435.92 376.4 2443.74 368.896C2451.56 361.235 2460.7 355.372 2471.18 351.307C2481.81 347.086 2493.38 344.976 2505.89 344.976C2518.55 344.976 2530.2 347.164 2540.83 351.542C2551.62 355.763 2560.76 362.095 2568.27 370.537L2553.02 385.312C2546.77 378.745 2539.73 373.899 2531.92 370.772C2524.1 367.489 2515.74 365.847 2506.83 365.847C2497.6 365.847 2489 367.411 2481.03 370.537C2473.21 373.664 2466.41 378.042 2460.63 383.67C2454.84 389.298 2450.31 396.021 2447.02 403.838C2443.9 411.499 2442.33 419.863 2442.33 428.931C2442.33 437.999 2443.9 446.441 2447.02 454.258C2450.31 461.919 2454.84 468.563 2460.63 474.192C2466.41 479.82 2473.21 484.198 2481.03 487.324C2489 490.451 2497.6 492.015 2506.83 492.015C2515.74 492.015 2524.1 490.451 2531.92 487.324C2539.73 484.041 2546.77 479.038 2553.02 472.316L2568.27 487.09C2560.76 495.532 2551.62 501.942 2540.83 506.32C2530.2 510.697 2518.47 512.886 2505.65 512.886ZM2669.96 417.674H2754.39V437.608H2669.96V417.674ZM2672.08 490.608H2767.76V511.01H2648.62V346.852H2764.47V367.254H2672.08V490.608ZM857.418 745.01V613.683H906.571C917.703 613.683 927.271 615.497 935.276 619.124C943.28 622.626 949.409 627.754 953.661 634.508C958.039 641.137 960.228 649.204 960.228 658.71C960.228 667.965 958.039 675.97 953.661 682.724C949.409 689.353 943.28 694.481 935.276 698.108C927.271 701.61 917.703 703.361 906.571 703.361H865.11L871.301 696.982V745.01H857.418ZM947.095 745.01L913.325 697.357H928.334L962.291 745.01H947.095ZM871.301 698.108L865.11 691.541H906.196C919.329 691.541 929.272 688.665 936.026 682.911C942.905 677.158 946.344 669.091 946.344 658.71C946.344 648.204 942.905 640.074 936.026 634.32C929.272 628.567 919.329 625.69 906.196 625.69H865.11L871.301 619.124V698.108ZM1042.9 672.405H1112.31V684.225H1042.9V672.405ZM1044.4 733.003H1123.38V745.01H1030.52V613.683H1120.57V625.69H1044.4V733.003ZM1229.75 746.136C1219.99 746.136 1210.61 744.572 1201.61 741.445C1192.73 738.194 1185.85 734.066 1180.97 729.063L1186.41 718.37C1191.04 722.872 1197.23 726.687 1204.98 729.814C1212.86 732.815 1221.12 734.316 1229.75 734.316C1238 734.316 1244.69 733.316 1249.82 731.315C1255.08 729.188 1258.89 726.374 1261.27 722.872C1263.77 719.37 1265.02 715.493 1265.02 711.24C1265.02 706.112 1263.52 701.985 1260.52 698.858C1257.64 695.731 1253.82 693.292 1249.07 691.541C1244.32 689.665 1239.07 688.039 1233.31 686.663C1227.56 685.288 1221.81 683.849 1216.05 682.348C1210.3 680.723 1204.98 678.596 1200.11 675.97C1195.35 673.343 1191.48 669.904 1188.47 665.651C1185.6 661.274 1184.16 655.583 1184.16 648.579C1184.16 642.075 1185.85 636.134 1189.22 630.756C1192.73 625.253 1198.04 620.875 1205.17 617.623C1212.3 614.246 1221.43 612.558 1232.56 612.558C1239.94 612.558 1247.26 613.621 1254.51 615.747C1261.77 617.748 1268.02 620.562 1273.27 624.189L1268.58 635.258C1262.95 631.506 1256.95 628.755 1250.57 627.004C1244.32 625.253 1238.25 624.377 1232.37 624.377C1224.49 624.377 1217.99 625.44 1212.86 627.566C1207.73 629.693 1203.92 632.569 1201.42 636.197C1199.04 639.699 1197.85 643.701 1197.85 648.204C1197.85 653.332 1199.29 657.459 1202.17 660.586C1205.17 663.713 1209.05 666.152 1213.8 667.903C1218.68 669.654 1223.99 671.217 1229.75 672.593C1235.5 673.969 1241.19 675.469 1246.82 677.095C1252.57 678.721 1257.83 680.848 1262.58 683.474C1267.46 685.976 1271.33 689.353 1274.21 693.605C1277.21 697.858 1278.71 703.423 1278.71 710.302C1278.71 716.681 1276.96 722.622 1273.46 728.125C1269.96 733.503 1264.58 737.881 1257.33 741.258C1250.2 744.51 1241 746.136 1229.75 746.136ZM1358.87 672.405H1428.28V684.225H1358.87V672.405ZM1360.37 733.003H1439.35V745.01H1346.48V613.683H1436.54V625.69H1360.37V733.003ZM1488.5 745.01L1548.53 613.683H1562.23L1622.26 745.01H1607.63L1552.47 621.751H1558.1L1502.94 745.01H1488.5ZM1512.13 709.927L1516.26 698.671H1592.62L1596.75 709.927H1512.13ZM1681.51 745.01V613.683H1730.66C1741.79 613.683 1751.36 615.497 1759.37 619.124C1767.37 622.626 1773.5 627.754 1777.75 634.508C1782.13 641.137 1784.32 649.204 1784.32 658.71C1784.32 667.965 1782.13 675.97 1777.75 682.724C1773.5 689.353 1767.37 694.481 1759.37 698.108C1751.36 701.61 1741.79 703.361 1730.66 703.361H1689.2L1695.39 696.982V745.01H1681.51ZM1771.18 745.01L1737.41 697.357H1752.42L1786.38 745.01H1771.18ZM1695.39 698.108L1689.2 691.541H1730.29C1743.42 691.541 1753.36 688.665 1760.12 682.911C1766.99 677.158 1770.43 669.091 1770.43 658.71C1770.43 648.204 1766.99 640.074 1760.12 634.32C1753.36 628.567 1743.42 625.69 1730.29 625.69H1689.2L1695.39 619.124V698.108ZM1911.64 746.136C1901.76 746.136 1892.63 744.51 1884.25 741.258C1875.87 737.881 1868.61 733.191 1862.49 727.187C1856.36 721.184 1851.54 714.117 1848.04 705.987C1844.66 697.858 1842.97 688.977 1842.97 679.347C1842.97 669.716 1844.66 660.836 1848.04 652.706C1851.54 644.576 1856.36 637.51 1862.49 631.506C1868.74 625.503 1876.06 620.875 1884.44 617.623C1892.82 614.246 1901.95 612.558 1911.83 612.558C1921.33 612.558 1930.28 614.184 1938.66 617.436C1947.04 620.562 1954.1 625.315 1959.86 631.694L1951.04 640.512C1945.66 635.008 1939.72 631.069 1933.21 628.692C1926.71 626.191 1919.71 624.94 1912.2 624.94C1904.32 624.94 1897.01 626.316 1890.25 629.067C1883.5 631.694 1877.62 635.509 1872.62 640.512C1867.61 645.389 1863.67 651.143 1860.8 657.772C1858.05 664.275 1856.67 671.467 1856.67 679.347C1856.67 687.226 1858.05 694.481 1860.8 701.109C1863.67 707.613 1867.61 713.367 1872.62 718.37C1877.62 723.247 1883.5 727.062 1890.25 729.814C1897.01 732.44 1904.32 733.753 1912.2 733.753C1919.71 733.753 1926.71 732.503 1933.21 730.001C1939.72 727.5 1945.66 723.498 1951.04 717.994L1959.86 726.812C1954.1 733.191 1947.04 738.006 1938.66 741.258C1930.28 744.51 1921.27 746.136 1911.64 746.136ZM2123.03 613.683H2136.72V745.01H2123.03V613.683ZM2040.86 745.01H2026.97V613.683H2040.86V745.01ZM2124.34 684.412H2039.35V672.218H2124.34V684.412Z" fill="white"/>
</svg>
