<svg viewBox="0 0 738 1024" preserveAspectRatio="xMidYMid meet" fill="none" xmlns="http://www.w3.org/2000/svg">
<path d="M70.8569 797.865C68.6043 806.461 64.1486 816.229 60.9554 819.572C55.4493 825.337 58.2147 825.65 114.517 825.65H173.884V217.853H59.7749L66.3001 229.141C72.3659 239.633 72.9 259.509 73.8889 511.332C74.6372 701.976 73.739 786.866 70.8569 797.865Z" fill="#B00020"/>
<path d="M239.021 474.864L239.018 84.1371L207.782 82V939.843L235.343 942L237.183 903.796C238.196 882.783 239.023 689.764 239.021 474.864Z" fill="#B00020"/>
<path d="M525.953 817.467C532.361 823.65 539.196 824.628 588.185 826.375C618.454 827.454 651.161 827.65 660.869 826.809C670.577 825.968 679.121 824.693 679.857 823.978C680.592 823.262 678.426 822.655 675.043 822.642C671.66 822.623 661.143 818.704 651.673 813.933C642.202 809.161 629.205 800.757 622.79 795.256C616.375 789.755 600.295 770.024 587.057 751.41C573.819 732.797 557.116 709.568 549.938 699.791C542.76 690.013 520.737 658.945 500.998 630.749C481.259 602.553 465.11 578.263 465.11 576.772C465.11 575.28 475.58 571.426 488.376 568.207C501.173 564.988 522.195 556.587 535.093 549.539C548.698 542.105 565.642 529.043 575.451 518.428C584.749 508.364 596.803 491.041 602.238 479.932C607.672 468.823 614.423 451.245 617.239 440.87C620.072 430.432 622.359 409.426 622.359 393.844C622.359 378.355 620.205 356.732 617.572 345.792C614.939 334.853 609.111 318.058 604.622 308.47C600.133 298.882 591.095 284.588 584.538 276.705C577.981 268.821 565.147 257.185 556.018 250.847C546.889 244.509 528.115 235.021 514.298 229.763L489.179 220.203L275.767 217.853V252.243L345.567 254.066C393.845 255.327 421.583 257.594 435.526 261.418C446.613 264.458 461.559 270.19 468.739 274.154C475.919 278.118 487.886 287.439 495.332 294.867C502.778 302.295 512.814 317.092 517.636 327.75C523.038 339.69 527.743 358.077 529.892 375.647C532.793 399.362 532.486 408.809 528.071 431.749C525.15 446.92 519.269 465.781 515.002 473.661C510.735 481.541 501.506 494.2 494.491 501.792C487.476 509.383 474.639 519.776 465.963 524.886C457.287 529.997 441.631 536.751 431.173 539.897C417.447 544.026 393.191 546.107 343.962 547.383L275.767 549.15V583.03H357.947L367.681 594.318C373.035 600.526 409.216 651.711 448.085 708.063C486.954 764.414 521.994 813.646 525.953 817.467Z" fill="#B00020"/>
</svg>
